<svg xmlns="http://www.w3.org/2000/svg" viewBox="0 0 292.01 43.8"><defs><style>.a{fill:#840029;}.a,.b{fill-rule:evenodd;}.b{fill:#6d6e70;}.c{fill:none;stroke:#000;stroke-miterlimit:10;stroke-width:0.65px;}</style></defs><path class="a" d="M47.28,31.63V13.06a2.06,2.06,0,0,0-2,1,4.75,4.75,0,0,0-.15,1.59v16Z"/><path class="a" d="M9.9,13.06V31.63H12v-16A4.75,4.75,0,0,0,11.89,14,2.05,2.05,0,0,0,9.9,13.06Z"/><path class="a" d="M4.53,28.63V15.8a4.94,4.94,0,0,0-.18-1.53,1.54,1.54,0,0,0-1.3-.76H3l.1-2.4L15.79,10h0a1.55,1.55,0,0,1,1.58,1.52v0h0v20h2.16V9.15c0-2,4.55-3.36,9.1-3.36s9.06,1.38,9.06,3.36h0V31.63h2.15V11.56h0A1.54,1.54,0,0,1,41.38,10h0l12.78,1.09.09,2.4h-.1a1.53,1.53,0,0,0-1.36.77,4.93,4.93,0,0,0-.17,1.53v12.5A3.34,3.34,0,0,0,56,31.63h1L55.81,7.43A56.93,56.93,0,0,0,28.62,0,56.15,56.15,0,0,0,1.53,7.43L.28,31.63h1A3.34,3.34,0,0,0,4.53,28.63Z"/><path class="a" d="M28.61,31.63h3.72V30.07h0V27.8h0V13.18a3.32,3.32,0,0,0-3.31-3h-.8a3.33,3.33,0,0,0-3.31,3V30.07h0v1.56Z"/><path class="b" d="M36.18,37.86a.55.55,0,1,0,.55.55h0A.55.55,0,0,0,36.18,37.86Z"/><path class="b" d="M31.87,36.74a.55.55,0,1,0,.55.55h0A.55.55,0,0,0,31.87,36.74Z"/><path class="b" d="M28.63,34.07H0l.53,2,28.1,7.68h0l28.1-7.68.53-2Zm-6.8,2.74H20.66v.75H21.8V38H20.66v1h1.17v.42H20.22v-3h1.61Zm1.53,2.56A.89.89,0,0,1,22.6,39a.93.93,0,0,1-.17-.48l.45-.1a.72.72,0,0,0,.08.32.46.46,0,0,0,.42.23.47.47,0,0,0,.48-.48h0a.44.44,0,0,0-.2-.38,2.5,2.5,0,0,0-.5-.23c-.41-.17-.6-.41-.6-.74a.82.82,0,0,1,.86-.78h0a.83.83,0,0,1,.79.49l-.36.22c-.14-.23-.24-.29-.44-.29a.38.38,0,0,0-.42.34v0a.29.29,0,0,0,.14.25,2.18,2.18,0,0,0,.47.21c.47.2.68.46.68.86a.91.91,0,0,1-.88.94Zm3.17-2.56h-.67v2.5h-.44v-2.5h-.67v-.42h1.78Zm.7,2.56a.24.24,0,1,1,.27-.27.28.28,0,0,1-.23.27ZM30,39.31h-.44V36.8H29l.24-.41H30ZM32.53,38l-1,1.39-.33-.24.7-1h-.16a.89.89,0,0,1-.87-.91h0a1,1,0,1,1,2,0A1.36,1.36,0,0,1,32.53,38Zm1.78,1.29h-.44V36.8h-.5l.24-.41h.7Zm1.83,0a1,1,0,0,1-1-1,1.33,1.33,0,0,1,.29-.74l1-1.38.32.24-.69,1h.15a.9.9,0,0,1,.88.91,1,1,0,0,1-.91,1Z"/><path d="M72.53,34.92H67.35v-.29h.18c.64,0,.74-.17.75-1.14V30.38c0-1-.1-1.1-.78-1.1h-.11V29h3v.29h-.21c-.68,0-.77.13-.78,1.1v3.18c0,.91.08,1,.88,1h.25c1,0,1.4-.36,1.7-1.51h.3Z"/><path d="M80.44,32A3.27,3.27,0,1,1,77,28.89h.25a3,3,0,0,1,3.2,2.78A2.81,2.81,0,0,1,80.44,32ZM75.2,32a4.14,4.14,0,0,0,.38,1.93,1.81,1.81,0,0,0,1.62.86c1.28,0,2-.94,2-2.71a4,4,0,0,0-.4-1.9,1.78,1.78,0,0,0-1.59-.87c-1.32,0-2,.91-2,2.65Z"/><path d="M82.16,32.9h.37a3.26,3.26,0,0,0,.37,1,1.58,1.58,0,0,0,1.34.78,1.06,1.06,0,0,0,1.15-1v0a.88.88,0,0,0-.28-.65c-.28-.28-.35-.31-1.35-.77a2.62,2.62,0,0,1-1.29-1A1.59,1.59,0,0,1,83,29.08a1.65,1.65,0,0,1,.89-.23,1.74,1.74,0,0,1,1.33.59.84.84,0,0,0,.21-.48h.29v1.62h-.29a1.61,1.61,0,0,0-1.5-1.42.85.85,0,0,0-.92.76V30c0,.5.34.82,1.3,1.23a4.8,4.8,0,0,1,1.46.83A1.77,1.77,0,0,1,84.35,35a2.07,2.07,0,0,1-1.62-.74,1.31,1.31,0,0,0-.2.54h-.32Z"/><path d="M95.4,34.92a6.61,6.61,0,0,1-1.15-1.48c-.75-1.17-.92-1.33-1.34-1.29H92.7v1.34c0,1,.1,1.13.73,1.14h.23v.29h-3v-.29h.17c.64,0,.73-.17.74-1.14V30.38c0-1-.1-1.1-.77-1.1h-.11V29H93a4.3,4.3,0,0,1,2,.37,1.34,1.34,0,0,1,.73,1.2c0,.77-.51,1.26-1.52,1.48a5.49,5.49,0,0,1,1.22,1.41c.68.94,1,1.22,1.58,1.25h0V35Zm-2.7-3.09c.31,0,.63,0,.94,0,.61-.08.93-.51.93-1.24a1.31,1.31,0,0,0-.34-1,1.69,1.69,0,0,0-1.19-.3H92.7Z"/><path d="M98.26,29h2.86v.29H101c-.68,0-.76.13-.77,1.1v3.11c0,1,.1,1.13.74,1.14h.15v.29H98.26v-.29h.14c.63,0,.73-.17.74-1.14V30.38c0-1-.1-1.1-.77-1.1h-.11Z"/><path d="M109.12,32a3.27,3.27,0,1,1-3.46-3.06h.25a3,3,0,0,1,3.2,2.78A2.81,2.81,0,0,1,109.12,32Zm-5.24,0a4.14,4.14,0,0,0,.38,1.93,1.81,1.81,0,0,0,1.62.86c1.28,0,2-.94,2-2.71a4,4,0,0,0-.4-1.9,1.76,1.76,0,0,0-1.58-.87c-1.37,0-2,.91-2,2.65Z"/><path d="M110.84,32.9h.32a3.28,3.28,0,0,0,.38,1,1.55,1.55,0,0,0,1.33.78,1.06,1.06,0,0,0,1.15-1v0a.88.88,0,0,0-.28-.65c-.28-.28-.35-.31-1.35-.77a2.66,2.66,0,0,1-1.29-1,1.59,1.59,0,0,1,.59-2.17,1.55,1.55,0,0,1,.84-.21,1.76,1.76,0,0,1,1.34.59.93.93,0,0,0,.2-.48h.29v1.62h-.29a1.61,1.61,0,0,0-1.49-1.42.86.86,0,0,0-.93.77V30c0,.5.34.82,1.3,1.23a4.8,4.8,0,0,1,1.46.83A1.77,1.77,0,0,1,113,35a2.09,2.09,0,0,1-1.63-.74,1.54,1.54,0,0,0-.2.54h-.32Z"/><path d="M125,32.68v2.13h-.29a1.44,1.44,0,0,0-.27-.62,2.61,2.61,0,0,1-2,.85,2.86,2.86,0,0,1-2.93-2.79V32a3.34,3.34,0,0,1,1-2.48,2.92,2.92,0,0,1,2-.71,2.59,2.59,0,0,1,1.94.82,2.12,2.12,0,0,0,.21-.69h.3l0,2.24h-.29a3.06,3.06,0,0,0-.51-1.3,1.9,1.9,0,0,0-1.53-.73c-1.22,0-1.89,1-1.89,2.79a3.42,3.42,0,0,0,.37,1.75,1.74,1.74,0,0,0,1.56.91,1.89,1.89,0,0,0,1.63-.89,3.1,3.1,0,0,0,.4-1.1Z"/><path d="M133.36,32a3.27,3.27,0,1,1-3.46-3.06h.24a3,3,0,0,1,3.21,2.77C133.36,31.75,133.36,31.85,133.36,32Zm-5.24,0a4.14,4.14,0,0,0,.38,1.93,1.8,1.8,0,0,0,1.62.86c1.28,0,2-.94,2-2.71a4.14,4.14,0,0,0-.4-1.9,1.78,1.78,0,0,0-1.59-.87c-1.32,0-2,.91-2,2.65Z"/><path d="M138.82,33.56,140.88,29h2v.29h-.19c-.68,0-.76.11-.77,1.1V33.5c0,1,.1,1.13.74,1.14h.23v.29h-3v-.29h.17c.64,0,.73-.17.74-1.14V29.81l-2.27,5.11h-.25L136,29.83v3.34c0,1,.16,1.37.87,1.45h0v.29h-2.12v-.29h0c.68-.08.88-.41.84-1.47V30.38c0-1-.09-1.1-.77-1.1h-.12V29h2Z"/><path d="M148.22,33.56,150.27,29h2v.29h-.19c-.69,0-.76.11-.78,1.1V33.5c0,1,.11,1.13.75,1.14h.22v.29h-3v-.29h.26c.63,0,.73-.17.74-1.14V29.81L148,34.92h-.24l-2.33-5.09v3.34c0,1,.16,1.37.87,1.45h0v.29h-2.13v-.29h.06c.68-.08.88-.41.84-1.47V30.38c0-1-.1-1.1-.77-1.1h-.13V29h2Z"/><path d="M160.09,29v.29H160c-.57.09-.76.32-.77.91v2.54A2.73,2.73,0,0,1,159,34a2.35,2.35,0,0,1-2.13,1,2.43,2.43,0,0,1-2.14-1,2,2,0,0,1-.28-1.13v-2.5c0-1-.09-1.1-.77-1.1h-.11V29h2.86v.29h-.12c-.66,0-.76.13-.76,1.1v2a4.14,4.14,0,0,0,.13,1.36,1.45,1.45,0,0,0,1.47.87,1.78,1.78,0,0,0,1.69-1,2.94,2.94,0,0,0,.13-1.25v-2c0-.8-.19-1-.85-1.08h0V29Z"/><path d="M166.6,35.05l-4.07-5.16v3.67c0,.55,0,.58.09.71a1,1,0,0,0,.81.38h.1v.29h-2.21v-.29h0a1,1,0,0,0,.79-.37c.07-.1.08-.2.08-.71v-3.1c0-1-.15-1.16-.82-1.16h-.06V29h1.84l3.43,4.29v-3.1c0-.64-.2-.87-.85-.93h-.1V29h2.15v.29h-.07c-.62.09-.83.33-.8,1v4.8Z"/><path d="M169,29h2.86v.29h-.12c-.67,0-.76.13-.77,1.1v3.11c0,1,.1,1.13.74,1.14h.15v.29H169v-.29h.14c.64,0,.73-.17.74-1.14V30.38c0-1-.1-1.1-.77-1.1H169Z"/><path d="M173.28,30.5V29h5.81V30.5h-.29c-.21-1-.44-1.23-1.3-1.2h-.8v4.19c0,1,.11,1.13.74,1.14h.25v.29h-3.06v-.29h.25c.63,0,.73-.17.74-1.14V29.3h-.75c-.93,0-1.14.16-1.33,1.2Z"/><path d="M183,29v.29h-.06c-.37,0-.56.1-.56.29s0,.2.22.48l1.26,2.1,1.07-1.8a1.26,1.26,0,0,0,.25-.61c0-.28-.24-.46-.62-.46h0V29h2v.29h0c-.44.07-.69.3-1.14,1.08l-1.39,2.2v1c0,1,.11,1.13.74,1.14h.09V35H182V34.7h.1c.63,0,.73-.17.74-1.14v-1l-1.43-2.36c-.48-.82-.58-.9-1-1h0v-.29Z"/><path d="M196.1,32.68v2.13h-.29a1.44,1.44,0,0,0-.27-.62,2.61,2.61,0,0,1-2,.85,2.86,2.86,0,0,1-2.93-2.79V32a3.33,3.33,0,0,1,1-2.44,2.92,2.92,0,0,1,2-.71,2.56,2.56,0,0,1,1.94.82,1.68,1.68,0,0,0,.21-.69h.3v2.24h-.28a3.07,3.07,0,0,0-.52-1.3,1.9,1.9,0,0,0-1.53-.73c-1.22,0-1.89,1-1.89,2.79a3.42,3.42,0,0,0,.37,1.75,1.76,1.76,0,0,0,1.56.91,1.89,1.89,0,0,0,1.63-.89,3.1,3.1,0,0,0,.4-1.1Z"/><path d="M204.44,32A3.27,3.27,0,1,1,201,28.89h.25a3,3,0,0,1,3.2,2.78A2.81,2.81,0,0,1,204.44,32Zm-5.24,0a4.14,4.14,0,0,0,.38,1.93,1.8,1.8,0,0,0,1.62.86c1.28,0,2-.94,2-2.71a4.14,4.14,0,0,0-.4-1.9,1.78,1.78,0,0,0-1.59-.87c-1.32,0-2,.91-2,2.65Z"/><path d="M211.08,34.92h-5.17v-.29h.14c.64,0,.74-.17.75-1.14V30.38c0-1-.1-1.1-.78-1.1h-.11V29h3v.29h-.21c-.68,0-.77.13-.78,1.1v3.18c0,.91.08,1,.88,1h.35c.95,0,1.4-.36,1.7-1.51h.29Z"/><path d="M217.53,34.92h-5.17v-.29h.14c.64,0,.74-.17.75-1.14V30.38c0-1-.1-1.1-.77-1.1h-.12V29h3v.29h-.21c-.68,0-.77.13-.78,1.1v3.18c0,.91.08,1,.88,1h.28c.95,0,1.4-.36,1.7-1.51h.3Z"/><path d="M223.89,33l-.1,1.88h-5.08v-.3h.12c.64,0,.74-.16.74-1.13V30.37c0-1-.09-1.08-.69-1.09h-.09V29h4.51l.12,1.49h-.3c-.25-1-.56-1.22-1.54-1.18h-.92v2.34h.6c.66,0,.81-.13.81-.68V30.8h.31v2h-.31v0c0-.68-.15-.81-.8-.8h-.62v1.42c0,1.09.12,1.25.87,1.23h.35c.93,0,1.4-.41,1.71-1.57Z"/><path d="M231.7,32.32v.31h-.08c-.58,0-.65.16-.65,1.13v.8a.49.49,0,0,0-.17,0,3.42,3.42,0,0,0-1,.2,4.18,4.18,0,0,1-1.4.26,2.9,2.9,0,0,1-3-2.8V32a3.36,3.36,0,0,1,1-2.43,2.89,2.89,0,0,1,2-.74,2.55,2.55,0,0,1,1.94.81,1.62,1.62,0,0,0,.18-.65h.3v2h-.29a2,2,0,0,0-2-1.82,1.74,1.74,0,0,0-1.55.86,4,4,0,0,0-.37,1.9,3.9,3.9,0,0,0,.37,1.87,1.69,1.69,0,0,0,1.52.84,1.41,1.41,0,0,0,1.22-.57,1,1,0,0,0,.13-.61v-.22c0-.55-.16-.68-.7-.68H229v-.31Z"/><path d="M238.14,33l-.1,1.88H233v-.3h.12c.64,0,.74-.16.75-1.13V30.37c0-1-.1-1.08-.7-1.09H233V29h4.49l.12,1.49h-.29c-.25-1-.57-1.22-1.55-1.18h-.92v2.34h.64c.65,0,.8-.13.81-.68V30.8h.31v2h-.31v0c0-.68-.15-.81-.8-.8h-.62v1.42c0,1.09.12,1.25.87,1.23h.35c.93,0,1.41-.41,1.71-1.57Z"/><path d="M242.53,29h2.11a5.31,5.31,0,0,1,2.77.55,2.78,2.78,0,0,1,1.36,2.53,2.67,2.67,0,0,1-1.83,2.72,5.63,5.63,0,0,1-2,.19h-2.41v-.29h.19c.63,0,.72-.17.73-1.14V30.4c0-1-.09-1.09-.77-1.08h-.15Zm2,4.25a3.06,3.06,0,0,0,.08,1c.1.22.32.31.76.31a1.86,1.86,0,0,0,1.68-.67,3.14,3.14,0,0,0,.5-1.88,2.72,2.72,0,0,0-1.1-2.46,2.53,2.53,0,0,0-1.35-.28h-.57Z"/><path d="M250.29,29h2.86v.29H253c-.68,0-.76.13-.77,1.1v3.11c0,1,.1,1.13.74,1.14h.15v.29h-2.86v-.29h.14c.63,0,.73-.17.74-1.14V30.38c0-1-.1-1.1-.77-1.1h-.11Z"/><path d="M254.74,32.9h.32a3,3,0,0,0,.37,1,1.55,1.55,0,0,0,1.33.78,1.06,1.06,0,0,0,1.15-1v0a.93.93,0,0,0-.27-.65c-.29-.28-.35-.31-1.36-.77a2.71,2.71,0,0,1-1.29-1,1.59,1.59,0,0,1,.54-2.18,1.5,1.5,0,0,1,.9-.23,1.74,1.74,0,0,1,1.33.59A1,1,0,0,0,258,29h.29v1.62H258a1.64,1.64,0,0,0-1.5-1.42.85.85,0,0,0-.92.76V30c0,.5.33.82,1.29,1.23a4.8,4.8,0,0,1,1.46.83A1.75,1.75,0,0,1,257,35h-.11a2.09,2.09,0,0,1-1.63-.74,1.29,1.29,0,0,0-.19.54h-.32Z"/><path d="M260,30.5V29h5.81V30.5h-.27c-.21-1-.44-1.23-1.3-1.2h-.8v4.19c0,1,.11,1.13.74,1.14h.25v.29h-3.06v-.29h.25c.63,0,.73-.17.74-1.14V29.3h-.75c-.93,0-1.14.16-1.33,1.2Z"/><path d="M271.93,34.92a6.8,6.8,0,0,1-1.14-1.48c-.76-1.17-.93-1.33-1.35-1.29h-.21v1.34c0,1,.11,1.13.74,1.14h.22v.29h-3v-.29h.17c.63,0,.73-.17.73-1.14V30.38c0-1-.09-1.1-.77-1.1h-.11V29h2.29a4.3,4.3,0,0,1,2,.37,1.34,1.34,0,0,1,.73,1.2c0,.77-.51,1.26-1.52,1.48a5.53,5.53,0,0,1,1.23,1.41c.67.94,1,1.22,1.57,1.25h0V35Zm-2.7-3.09c.31,0,.63,0,.94,0,.62-.08.94-.51.94-1.24a1.31,1.31,0,0,0-.35-1,1.65,1.65,0,0,0-1.18-.3h-.35Z"/><path d="M274.79,29h2.86v.29h-.12c-.67,0-.76.13-.77,1.1v3.11c0,1,.11,1.13.75,1.14h.14v.29h-2.86v-.29h.15c.63,0,.73-.17.73-1.14V30.38c0-1-.09-1.1-.77-1.1h-.11Z"/><path d="M284.63,32.68v2.13h-.28a1.83,1.83,0,0,0-.28-.62,2.61,2.61,0,0,1-2,.85,2.85,2.85,0,0,1-2.94-2.78V32a3.37,3.37,0,0,1,1-2.44,2.88,2.88,0,0,1,2-.71,2.56,2.56,0,0,1,1.94.82,2.06,2.06,0,0,0,.22-.69h.24l.05,2.24h-.28a3.07,3.07,0,0,0-.52-1.3,1.9,1.9,0,0,0-1.53-.73c-1.22,0-1.88,1-1.88,2.79a3.43,3.43,0,0,0,.36,1.75,1.77,1.77,0,0,0,1.57.91,1.89,1.89,0,0,0,1.63-.89,3.31,3.31,0,0,0,.4-1.1Z"/><path d="M286.2,30.5V29H292V30.5h-.29c-.21-1-.44-1.23-1.3-1.2h-.8v4.19c0,1,.11,1.13.74,1.14h.25v.29h-3.06v-.29h.25c.63,0,.73-.17.74-1.14V29.3h-.75c-.93,0-1.14.16-1.33,1.2Z"/><line class="c" x1="67.72" y1="23.04" x2="291.29" y2="23.04"/><path d="M67.43,15.45l1.3-.36a2.39,2.39,0,0,0,2.44,2.2,2.35,2.35,0,0,0,1.71-.69,2.22,2.22,0,0,0,.71-1.66,1.92,1.92,0,0,0-1-1.72A4.46,4.46,0,0,0,72,12.9c-.15-.08-.67-.32-1.55-.72a5,5,0,0,1-1.87-1.27A2.55,2.55,0,0,1,68,9.23,2.9,2.9,0,0,1,69,7,3.56,3.56,0,0,1,74.5,8l-1.06.69a3,3,0,0,0-.91-1,2.13,2.13,0,0,0-1.15-.29A1.94,1.94,0,0,0,70,7.93a1.72,1.72,0,0,0-.57,1.32,1.54,1.54,0,0,0,.75,1.29,4.27,4.27,0,0,0,.58.34c.17.09.67.31,1.49.67A5.54,5.54,0,0,1,74.3,13a2.91,2.91,0,0,1,.64,1.9,3.5,3.5,0,0,1-1.11,2.63,3.75,3.75,0,0,1-2.71,1.07,3.63,3.63,0,0,1-2.39-.82A4.1,4.1,0,0,1,67.43,15.45Z"/><path d="M76,18.34,81.48,5.75l5.4,12.59H85.41L84,14.94H78.86l-1.45,3.4Zm3.47-4.64h4l-2-4.81Z"/><path d="M86.88,12.38a6.06,6.06,0,0,1,.5-2.42,6.36,6.36,0,0,1,1.35-2,6.5,6.5,0,0,1,2-1.34,6.15,6.15,0,0,1,2.44-.49A5.6,5.6,0,0,1,95,6.41a7.26,7.26,0,0,1,1.73.91V9A6.28,6.28,0,0,0,95,7.77a4.73,4.73,0,0,0-1.89-.38,4.61,4.61,0,0,0-2.42.68A5,5,0,0,0,88.89,9.9a4.93,4.93,0,0,0-.65,2.49,4.76,4.76,0,0,0,.65,2.45,4.85,4.85,0,0,0,1.78,1.79,4.67,4.67,0,0,0,2.43.66A4.78,4.78,0,0,0,95,16.91a6.16,6.16,0,0,0,1.74-1.18v1.65a6.39,6.39,0,0,1-3.62,1.18,6,6,0,0,1-2.4-.5,6.28,6.28,0,0,1-3.32-3.3A5.94,5.94,0,0,1,86.88,12.38Z"/><path d="M99.18,18.34v-12h1.94a8,8,0,0,1,1.7.15A3.39,3.39,0,0,1,104,7a2.8,2.8,0,0,1,1,1.14,3.49,3.49,0,0,1,.36,1.58,3.2,3.2,0,0,1-.83,2.26,3.23,3.23,0,0,1-2.19,1l3.81,5.36h-1.64l-3.62-5.26h-.34v5.26Zm1.35-6.45h.84a3,3,0,0,0,2-.57A2,2,0,0,0,104,9.7a2.31,2.31,0,0,0-.23-1,1.72,1.72,0,0,0-.65-.71,3.34,3.34,0,0,0-1.82-.4h-.79Z"/><path d="M106.77,18.34,112.3,5.75l5.4,12.59h-1.47l-1.43-3.4h-5.13l-1.44,3.4Zm3.46-4.64h4l-2-4.81Z"/><path d="M119.94,18.34l2-12.68,4.62,10.14,4.71-10.16,1.85,12.7h-1.37L130.61,10l-4.08,8.85-4-8.85-1.18,8.35Z"/><path d="M135.9,18.34v-12h6.21V7.57h-4.86v3.59H142v1.23h-4.73V17.1h4.86v1.24Z"/><path d="M144.57,18.34V5.83l9.34,9.81V6.33h1.36V18.87l-9.35-9.79v9.26Z"/><path d="M157,7.57V6.33h7.17V7.57h-2.92V18.34h-1.36V7.57Z"/><path d="M165.35,12.27a5.8,5.8,0,0,1,.5-2.35,6.36,6.36,0,0,1,1.36-2,6.66,6.66,0,0,1,2-1.33,6.15,6.15,0,0,1,5.51.35A6.21,6.21,0,0,1,177,9.24a5.93,5.93,0,0,1,.85,3.1,6.06,6.06,0,0,1-.5,2.42,6.32,6.32,0,0,1-1.35,2,6.5,6.5,0,0,1-4.46,1.82A6.06,6.06,0,0,1,169,18a6.32,6.32,0,0,1-2.13-1.55A6.11,6.11,0,0,1,165.35,12.27Zm1.35,0a4.84,4.84,0,0,0,1.53,3.66,5.06,5.06,0,0,0,1.57,1,4.58,4.58,0,0,0,1.76.36,4.92,4.92,0,0,0,4.93-4.95,4.86,4.86,0,0,0-.65-2.48,4.73,4.73,0,0,0-1.78-1.8,4.86,4.86,0,0,0-4.91,0,5,5,0,0,0-1.79,1.79A4.72,4.72,0,0,0,166.7,12.27Z"/><path d="M182.14,12.38a6.06,6.06,0,0,1,.5-2.42A6.19,6.19,0,0,1,184,8a6.5,6.5,0,0,1,2-1.34,6.1,6.1,0,0,1,2.43-.49,5.52,5.52,0,0,1,1.82.28,7.08,7.08,0,0,1,1.73.91V9a6.1,6.1,0,0,0-1.74-1.21,4.73,4.73,0,0,0-1.89-.38,4.58,4.58,0,0,0-2.42.68,4.86,4.86,0,0,0-1.77,1.83,4.94,4.94,0,0,0-.66,2.49,4.76,4.76,0,0,0,.66,2.45,4.83,4.83,0,0,0,1.77,1.79,4.82,4.82,0,0,0,4.31.28A5.9,5.9,0,0,0,192,15.73v1.65a6.37,6.37,0,0,1-3.62,1.18,6,6,0,0,1-2.39-.5,6.1,6.1,0,0,1-2-1.33,6.19,6.19,0,0,1-1.34-2A5.94,5.94,0,0,1,182.14,12.38Z"/><path d="M195.44,18.34v-12h1.35v12Z"/><path d="M198.56,7.57V6.33h7.17V7.57h-2.92V18.34h-1.35V7.57Z"/><path d="M207.1,6.33h1.54l3.07,5.36,3.09-5.36h1.57l-4,6.84v5.17H211V13.17Z"/><path d="M220.87,12.38a6.06,6.06,0,0,1,.5-2.42,6.36,6.36,0,0,1,1.35-2,6.5,6.5,0,0,1,2-1.34,6.15,6.15,0,0,1,2.44-.49,5.5,5.5,0,0,1,1.81.28,7.13,7.13,0,0,1,1.74.91V9A6.28,6.28,0,0,0,229,7.77a4.73,4.73,0,0,0-1.89-.38,4.58,4.58,0,0,0-2.42.68,5,5,0,0,0-1.77,1.83,4.94,4.94,0,0,0-.66,2.49,4.76,4.76,0,0,0,.66,2.45,4.9,4.9,0,0,0,1.77,1.79,4.72,4.72,0,0,0,2.43.66,4.8,4.8,0,0,0,1.89-.38,6.16,6.16,0,0,0,1.74-1.18v1.65a6.42,6.42,0,0,1-3.63,1.18,6,6,0,0,1-2.39-.5,6.21,6.21,0,0,1-2-1.33,6.36,6.36,0,0,1-1.34-2A5.94,5.94,0,0,1,220.87,12.38Z"/><path d="M232.5,12.27a5.8,5.8,0,0,1,.5-2.35,6.36,6.36,0,0,1,1.36-2,6.66,6.66,0,0,1,2-1.33,6.15,6.15,0,0,1,5.51.35,6.21,6.21,0,0,1,2.28,2.27,5.93,5.93,0,0,1,.85,3.1,6.06,6.06,0,0,1-.5,2.42,6.32,6.32,0,0,1-1.35,2,6.5,6.5,0,0,1-4.45,1.82,6.07,6.07,0,0,1-2.52-.56,6.32,6.32,0,0,1-2.13-1.55A6.11,6.11,0,0,1,232.5,12.27Zm1.35,0a4.84,4.84,0,0,0,1.53,3.66,5.06,5.06,0,0,0,1.57,1,4.58,4.58,0,0,0,1.76.36,4.92,4.92,0,0,0,4.93-4.95A4.86,4.86,0,0,0,243,9.86a4.73,4.73,0,0,0-1.78-1.8,4.86,4.86,0,0,0-4.91,0,5,5,0,0,0-1.79,1.79A4.72,4.72,0,0,0,233.85,12.27Z"/><path d="M247.46,18.34v-12h1.35V17.1h3.3v1.24Z"/><path d="M254.9,18.34v-12h1.35V17.1h3.3v1.24Z"/><path d="M262.34,18.34v-12h6.22V7.57H263.7v3.59h4.72v1.23H263.7V17.1h4.86v1.24Z"/><path d="M270.35,12.36a6.24,6.24,0,0,1,1.21-3.68,6.64,6.64,0,0,1,1.36-1.34,6.13,6.13,0,0,1,1.72-.9,6.31,6.31,0,0,1,2-.31,5.86,5.86,0,0,1,3.67,1.23,8.49,8.49,0,0,1,1.39,1.38l-1,.9a6.36,6.36,0,0,0-1.86-1.71,4.45,4.45,0,0,0-2.2-.54,4.82,4.82,0,0,0-2.47.67,5,5,0,0,0-2.46,4.32,4.69,4.69,0,0,0,.39,1.88,5.07,5.07,0,0,0,1.05,1.58,4.78,4.78,0,0,0,1.54,1.05,4.42,4.42,0,0,0,4-.17,4.11,4.11,0,0,0,1.58-1.48,3.75,3.75,0,0,0,.49-1.69H277.2V12.31h5v.3a8.56,8.56,0,0,1-.15,1.73,4.66,4.66,0,0,1-.49,1.32,5.33,5.33,0,0,1-2.1,2.11,5.85,5.85,0,0,1-2.95.79,6,6,0,0,1-2.39-.5,6.1,6.1,0,0,1-2-1.32,6.47,6.47,0,0,1-1.32-2A6,6,0,0,1,270.35,12.36Z"/><path d="M284.66,18.34v-12h6.21V7.57H286v3.59h4.73v1.23H286V17.1h4.86v1.24Z"/></svg>